<svg height="512pt" viewBox="-119 0 512 512" width="512pt" xmlns="http://www.w3.org/2000/svg"><path d="m243.277344 272.824219c-20.292969-4.214844-40.128906 8.789062-44.34375 29.089843-1.875 9.023438-6.339844 17.269532-12.914063 23.84375-18.519531 18.519532-48.652343 18.519532-67.175781 0-18.519531-18.523437-18.519531-48.65625 0-67.175781 18.582031-18.582031 48.59375-18.585937 67.175781 0 14.707031 14.703125 38.5625 14.648438 53.199219-.164062 14.585938-14.769531 14.109375-38.777344-.722656-53.425781-23.09375-22.804688-53.644532-35.351563-86.058594-35.351563-.125 0-.25 0-.371094 0-11.667968.035156-23.082031 1.691406-33.992187 4.867187 27.363281-27.355468 58.921875-58.90625 72.082031-72.066406 14.621094-14.621094 14.621094-38.414062 0-53.035156-14.621094-14.617188-38.410156-14.617188-53.03125 0-17.109375 17.109375-61.84375 61.832031-94.695312 94.671875l47.707031-115.179687c3.480469-8.4375 11.648437-13.890626 20.800781-13.898438 7.78125 0 15.683594 4.117188 19.859375 11.949219 1.917969 3.628906 6.421875 5.074219 10.140625 3.109375 3.726562-1.976563 5.015625-6.550782 3.109375-10.140625-6.363281-12.027344-19.035156-19.917969-33.109375-19.917969h-.019531c-15.0625 0-28.777344 9.027344-34.640625 23.160156l-61.269532 147.921875c.007813-37.222656.011719-80.070312.011719-95.160156 0-14.375 13.363281-25.089844 27.40625-21.964844 4.042969.902344 8.050781-1.648437 8.949219-5.691406s-1.648438-8.050781-5.691406-8.949219c-23.472656-5.214844-45.6640628 12.71875-45.6640628 36.605469 0 29.484375-.0195312 418.578125-.0195312 428.578125 0 4.140625 3.355469 7.5 7.5 7.5s7.5-3.359375 7.5-7.5v-271.023438c0-.644531 0-4.574218 0-10.792968.019531-19.375 7.636719-37.609375 21.242188-51.210938 32.117187-32.101562 91.207031-91.179687 111.488281-111.460937 8.773437-8.769531 23.046875-8.769531 31.820312 0 8.769531 8.773437 8.769531 23.050781 0 31.820312-21.652343 21.652344-93.097656 93.078125-113.738281 113.710938-2.929688 2.929687-2.933594 7.679687-.003906 10.609375 2.925781 2.925781 7.675781 2.929687 10.605468 0 41.65625-41.65625 109.636719-41.871094 151.539063-.488282 8.949219 8.839844 9.332031 23.363282.59375 32.210938-8.769531 8.871094-23.085937 8.933594-31.921875.097656-24.367188-24.367187-64.019531-24.367187-88.390625 0-24.367187 24.371094-24.367187 64.019532 0 88.390625 24.417969 24.414063 63.945313 24.445313 88.390625 0 8.644531-8.644531 14.519531-19.503906 16.992188-31.398437 2.53125-12.175782 14.429687-19.984375 26.605468-17.453125 12.148438 2.523437 19.976563 14.460937 17.453125 26.605469-4.261719 20.507812-14.371093 39.203124-29.230469 54.066406-11.328124 11.328125-24.601562 19.785156-39.457031 25.140625-26.351562 9.503906-44.058593 34.941406-44.058593 63.296875v47.878906c0 4.144531 3.359374 7.5 7.5 7.5 4.144531 0 7.5-3.355469 7.5-7.5v-47.878906c0-22.054688 13.722656-41.816406 34.148437-49.183594 16.945313-6.113281 32.074219-15.75 44.972656-28.648438 16.933594-16.933593 28.453125-38.242187 33.3125-61.617187 4.207031-20.246094-8.839843-40.140625-29.085937-44.347656zm0 0"/></svg>