<svg xmlns="http://www.w3.org/2000/svg" width="33.019" height="61" viewBox="0 0 33.019 61"><path d="M28.509,31.971a4.392,4.392,0,0,0-5.2,3.409A5.568,5.568,0,1,1,21.8,30.3a4.4,4.4,0,1,0,6.15-6.28,14.266,14.266,0,0,0-10.085-4.143H17.82a14.391,14.391,0,0,0-3.983.57L22.284,12a4.395,4.395,0,1,0-6.215-6.215L4.972,16.884l5.591-13.5a2.636,2.636,0,0,1,4.765-.228.879.879,0,0,0,1.553-.824A4.4,4.4,0,0,0,13,0h0A4.393,4.393,0,0,0,8.938,2.714L1.758,20.048c0-4.362,0-9.383,0-11.152A2.641,2.641,0,0,1,4.971,6.323a.879.879,0,1,0,.382-1.716A4.4,4.4,0,0,0,0,8.9c0,3.455,0,49.052,0,50.224a.879.879,0,0,0,1.758,0V26.1a8.458,8.458,0,0,1,2.489-6L17.312,7.032a2.637,2.637,0,1,1,3.729,3.729L7.712,24.087A.879.879,0,1,0,8.954,25.33a12.627,12.627,0,0,1,17.759-.057,2.681,2.681,0,0,1,.07,3.775,2.637,2.637,0,0,1-3.741.011,7.321,7.321,0,1,0,1.991,6.679A2.637,2.637,0,0,1,30.2,36.81a12.632,12.632,0,0,1-8.049,9.282,7.883,7.883,0,0,0-5.163,7.418v5.611a.879.879,0,0,0,1.758,0V53.51a6.12,6.12,0,0,1,4-5.764,14.393,14.393,0,0,0,9.174-10.578,4.4,4.4,0,0,0-3.409-5.2Zm0,0" transform="translate(0.501 0.501)" fill="#fff" stroke="#fff" stroke-width="1"/></svg>