<svg xmlns="http://www.w3.org/2000/svg" width="24.161" height="24.01" viewBox="0 0 24.161 24.01">
  <g id="recycle_2_" data-name="recycle (2)" transform="translate(0.125 0.125)">
    <path id="Caminho_31" data-name="Caminho 31" d="M11.881,1.277A10.6,10.6,0,0,1,17.323,2.82a11.782,11.782,0,0,1,2.839,2.39l-2.809-.093a.6.6,0,1,0-.039,1.195L21.2,6.44a.6.6,0,0,0,.78-.781l-.128-3.885a.6.6,0,0,0-1.2.027s0,.009,0,.013l.074,2.242a13.039,13.039,0,0,0-2.793-2.26A11.8,11.8,0,0,0,11.881.082,11.561,11.561,0,0,0,3.192,3.968,12.34,12.34,0,0,0,0,11.962a.6.6,0,0,0,1.2,0A11.114,11.114,0,0,1,4.08,4.768a10.38,10.38,0,0,1,7.8-3.491Zm0,0" transform="translate(-0.001 -0.082)" fill="#fff" stroke="#fff" stroke-width="0.25"/>
    <path id="Caminho_32" data-name="Caminho 32" d="M60.864,236.012a.6.6,0,0,0-.6.6,11.115,11.115,0,0,1-2.884,7.194,10.38,10.38,0,0,1-7.8,3.49,10.6,10.6,0,0,1-5.442-1.542,11.791,11.791,0,0,1-2.839-2.39l2.809.093a.6.6,0,0,0,.039-1.2l-3.886-.128a.6.6,0,0,0-.78.781l.128,3.885a.6.6,0,0,0,1.2-.027s0-.008,0-.013l-.074-2.242a13.043,13.043,0,0,0,2.793,2.26,11.8,11.8,0,0,0,6.057,1.712,11.561,11.561,0,0,0,8.689-3.886,12.341,12.341,0,0,0,3.191-7.994.6.6,0,0,0-.6-.6Zm0,0" transform="translate(-37.551 -224.73)" fill="#fff" stroke="#fff" stroke-width="0.25"/>
  </g>
</svg>
